{
	"asset":{
		"generator":"Khronos glTF Blender I/O v3.5.30",
		"version":"2.0"
	},
	"scene":0,
	"scenes":[
		{
			"extras":{
				"b_export":1,
				"b_interactive":1,
				"b_player":0,
				"b_renderer":0,
				"b_settings":0,
				"export_path":"/Volumes/2793-Blender-3D/HFIAD/Maze/Maze_V4/",
				"s_output":"exporting..."
			},
			"name":"Scene",
			"nodes":[
				0
			]
		}
	],
	"nodes":[
		{
			"mesh":0,
			"name":"Maze"
		}
	],
	"materials":[
		{
			"doubleSided":true,
			"name":"Maze",
			"pbrMetallicRoughness":{
				"baseColorFactor":[
					0.8005527257919312,
					0.4966951608657837,
					0.0035755857825279236,
					1
				],
				"metallicFactor":0,
				"roughnessFactor":0.5
			}
		}
	],
	"meshes":[
		{
			"name":"Curve",
			"primitives":[
				{
					"attributes":{
						"POSITION":0,
						"TEXCOORD_0":1,
						"NORMAL":2,
						"TANGENT":3
					},
					"indices":4,
					"material":0
				}
			]
		}
	],
	"accessors":[
		{
			"bufferView":0,
			"componentType":5126,
			"count":18338,
			"max":[
				9.87665843963623,
				0.7514815330505371,
				9.966653823852539
			],
			"min":[
				-10.123342514038086,
				-0.7485185861587524,
				-10.033347129821777
			],
			"type":"VEC3"
		},
		{
			"bufferView":1,
			"componentType":5126,
			"count":18338,
			"type":"VEC2"
		},
		{
			"bufferView":2,
			"componentType":5126,
			"count":18338,
			"type":"VEC3"
		},
		{
			"bufferView":3,
			"componentType":5126,
			"count":18338,
			"type":"VEC4"
		},
		{
			"bufferView":4,
			"componentType":5123,
			"count":43884,
			"type":"SCALAR"
		}
	],
	"bufferViews":[
		{
			"buffer":0,
			"byteLength":220056,
			"byteOffset":0,
			"target":34962
		},
		{
			"buffer":0,
			"byteLength":146704,
			"byteOffset":220056,
			"target":34962
		},
		{
			"buffer":0,
			"byteLength":220056,
			"byteOffset":366760,
			"target":34962
		},
		{
			"buffer":0,
			"byteLength":293408,
			"byteOffset":586816,
			"target":34962
		},
		{
			"buffer":0,
			"byteLength":87768,
			"byteOffset":880224,
			"target":34963
		}
	],
	"buffers":[
		{
			"byteLength":967992,
			"uri":"data:application/octet-stream;base64,"
		}
	]
}
