<?xml version="1.0" standalone="no"?>
<!DOCTYPE svg PUBLIC "-//W3C//DTD SVG 1.1//EN" "http://www.w3.org/Graphics/SVG/1.1/DTD/svg11.dtd">
<svg width="244" height="244" version="1.1" xmlns="http://www.w3.org/2000/svg">
  <title>15 cells diameter theta maze</title>
  <desc>15 cells diameter theta maze generated by The Maze Generator Website (https://www.mazegenerator.net/).</desc>
  <g fill="none" stroke="#000000" stroke-width="2" stroke-linecap="square">
    <path d="M 106.02943725152286,139.97056274847714 A 24,24 0 1,1 123,147" />
    <path d="M 107.69266270539639,86.044818699548543 A 40,40 0 0,1 138.3073372946036,86.044818699548529" />
    <path d="M 151.2842712474619,94.7157287525381 A 40,40 0 0,1 159.95518130045147,107.6926627053964" />
    <path d="M 163,123 A 40,40 0 0,1 94.7157287525381,151.2842712474619" />
    <path d="M 86.044818699548529,138.3073372946036 A 40,40 0 0,1 83,123.00000000000001" />
    <path d="M 83.402020253553331,83.402020253553346 A 56,56 0 0,1 123,67" />
    <path d="M 144.43027221244503,71.262746179367952 A 56,56 0 0,1 162.59797974644667,83.402020253553331" />
    <path d="M 174.73725382063205,101.56972778755497 A 56,56 0 0,1 174.73725382063208,144.43027221244503" />
    <path d="M 162.59797974644667,162.59797974644664 A 56,56 0 0,1 144.43027221244503,174.73725382063205" />
    <path d="M 123,179 A 56,56 0 0,1 83.402020253553346,162.59797974644667" />
    <path d="M 67,123.00000000000001 A 56,56 0 0,1 71.262746179367952,101.56972778755497" />
    <path d="M 123,51 A 72,72 0 0,1 137.04650318516124,52.383459810967409" />
    <path d="M 163.00105677741135,63.134187914216739 A 72,72 0 0,1 193.61654018903261,108.95349681483876" />
    <path d="M 195,123 A 72,72 0 0,1 182.86581208578326,163.00105677741135" />
    <path d="M 137.04650318516127,193.61654018903261 A 72,72 0 0,1 51,123.00000000000001" />
    <path d="M 52.383459810967409,108.95349681483876 A 72,72 0 0,1 56.48067365918736,95.446792869713519" />
    <path d="M 63.134187914216724,82.998943222588665 A 72,72 0 0,1 72.088311754568565,72.0883117545686" />
    <path d="M 82.99894322258865,63.134187914216746 A 72,72 0 0,1 108.95349681483873,52.383459810967409" />
    <path d="M 105.83205166258067,36.690895324515722 A 88,88 0 0,1 123,35" />
    <path d="M 156.6761420481279,41.698601139006769 A 88,88 0 0,1 204.30139886099323,89.3238579518721" />
    <path d="M 209.30910467548426,140.16794833741929 A 88,88 0 0,1 204.30139886099323,156.6761420481279" />
    <path d="M 196.16932588262398,171.89018050572497 A 88,88 0 0,1 171.89018050572497,196.16932588262398" />
    <path d="M 156.6761420481279,204.30139886099323 A 88,88 0 0,1 123.00000000000001,211" />
    <path d="M 89.323857951872114,204.30139886099323 A 88,88 0 0,1 60.774603255583827,185.2253967444162" />
    <path d="M 49.83067411737602,171.890180505725 A 88,88 0 0,1 41.698601139006783,156.67614204812796" />
    <path d="M 36.690895324515722,140.16794833741932 A 88,88 0 0,1 35,123.00000000000001" />
    <path d="M 36.690895324515722,105.83205166258071 A 88,88 0 0,1 49.830674117375992,74.10981949427503" />
    <path d="M 60.774603255583806,60.774603255583834 A 88,88 0 0,1 89.323857951872043,41.698601139006783" />
    <path d="M 123,19 A 104,104 0 0,1 180.77930423403862,36.527160320535287" />
    <path d="M 209.4728396794647,65.220695765961366 A 104,104 0 0,1 219.08347138117381,83.200923034030666" />
    <path d="M 196.53910524340097,196.53910524340094 A 104,104 0 0,1 162.79907696596933,219.08347138117381" />
    <path d="M 102.71060651032265,225.00166916193598 A 104,104 0 0,1 20.998330838064035,143.28939348967737" />
    <path d="M 36.527160320535273,65.220695765961409 A 104,104 0 0,1 83.200923034030609,26.916528618826206" />
    <path d="M 146.41083864193539,5.3057663516123483 A 120,120 0 1,1 123,3" />
  </g>
  <g fill="none" stroke="#000000" stroke-width="2" stroke-linecap="butt">
    <line x1="123" y1="51" x2="123" y2="67" />
    <line x1="143.28939348967734" y1="20.998330838064035" x2="137.04650318516124" y2="52.383459810967409" />
    <line x1="156.6761420481279" y1="41.698601139006769" x2="138.3073372946036" y2="86.044818699548529" />
    <line x1="196.53910524340094" y1="49.460894756599046" x2="185.22539674441617" y2="60.774603255583813" />
    <line x1="173.91168824543144" y1="72.088311754568565" x2="162.59797974644664" y2="83.402020253553331" />
    <line x1="151.2842712474619" y1="94.7157287525381" x2="139.97056274847714" y2="106.02943725152286" />
    <line x1="222.77635347630542" y1="56.331572037647732" x2="209.4728396794647" y2="65.220695765961352" />
    <line x1="174.73725382063205" y1="101.56972778755497" x2="159.95518130045147" y2="107.6926627053964" />
    <line x1="240.69423364838764" y1="99.5891613580646" x2="193.61654018903261" y2="108.95349681483876" />
    <line x1="227" y1="123" x2="195" y2="123" />
    <line x1="225.00166916193598" y1="143.28939348967734" x2="209.30910467548426" y2="140.16794833741929" />
    <line x1="233.86554390135441" y1="168.92201188381077" x2="204.30139886099323" y2="156.6761420481279" />
    <line x1="189.51932634081265" y1="150.55320713028647" x2="174.73725382063205" y2="144.43027221244503" />
    <line x1="209.47283967946473" y1="180.77930423403859" x2="182.86581208578326" y2="163.00105677741135" />
    <line x1="207.85281374238571" y1="207.85281374238571" x2="196.53910524340097" y2="196.53910524340094" />
    <line x1="173.91168824543144" y1="173.91168824543144" x2="151.2842712474619" y2="151.2842712474619" />
    <line x1="171.890180505725" y1="196.16932588262398" x2="163.00105677741135" y2="182.86581208578326" />
    <line x1="162.79907696596933" y1="219.08347138117381" x2="144.43027221244503" y2="174.73725382063205" />
    <line x1="146.41083864193544" y1="240.69423364838764" x2="143.28939348967737" y2="225.00166916193598" />
    <line x1="123.00000000000001" y1="227" x2="123.00000000000001" y2="211" />
    <line x1="102.71060651032265" y1="225.00166916193598" x2="108.95349681483876" y2="193.61654018903261" />
    <line x1="60.774603255583827" y1="185.2253967444162" x2="72.088311754568579" y2="173.91168824543144" />
    <line x1="83.402020253553346" y1="162.59797974644667" x2="106.02943725152286" y2="139.97056274847714" />
    <line x1="26.916528618826206" y1="162.79907696596939" x2="41.698601139006783" y2="156.67614204812796" />
    <line x1="56.480673659187374" y1="150.5532071302865" x2="86.044818699548543" y2="138.3073372946036" />
    <line x1="3" y1="123.00000000000003" x2="51" y2="123.00000000000001" />
    <line x1="20.998330838064035" y1="102.71060651032266" x2="52.383459810967409" y2="108.95349681483876" />
    <line x1="12.1344560986456" y1="77.0779881161892" x2="26.916528618826192" y2="83.200923034030637" />
    <line x1="56.48067365918736" y1="95.446792869713519" x2="86.044818699548529" y2="107.6926627053964" />
    <line x1="36.527160320535273" y1="65.220695765961409" x2="49.830674117376006" y2="74.10981949427503" />
    <line x1="60.774603255583806" y1="60.774603255583834" x2="106.02943725152286" y2="106.02943725152286" />
    <line x1="83.200923034030609" y1="26.916528618826206" x2="89.323857951872043" y2="41.698601139006783" />
    <line x1="99.589161358064558" y1="5.3057663516123625" x2="108.95349681483873" y2="52.383459810967423" />
  </g>
  <path fill="none" stroke="#ff0000" stroke-width="2" stroke-linecap="square" stroke-linejoin="round" d="M 134.76205683954728,3.5778327993363774 L 133.97791971691078,11.539310612713948 A 112,112 0 0,1 194.05204782632831,36.422829223373455 L 183.90175527970996,48.790996477177245 A 96,96 0 0,0 150.86732901642839,31.133727769707946 L 141.5782193442856,61.755818513138635 A 64,64 0 0,0 135.48578060903222,60.229742054193252 L 132.36433545677414,75.922306540644939 A 48,48 0 0,0 96.3326288150591,83.08945860947783 L 105.22175254337273,96.392972406318549 A 32,32 0 0,1 140.77824745662727,96.392972406318549 L 149.66737118494092,83.08945860947783 A 48,48 0 0,1 162.91054139052216,96.3326288150591 L 176.2140551873629,87.443505086745461 A 64,64 0 0,1 186.69182250702059,116.7269030189081 L 234.46068938728604,112.0220802830892 A 112,112 0 0,1 234.46068938728604,133.9779197169108 L 202.61477813377576,130.84137122636486 A 80,80 0 0,1 193.5537011478684,160.71173894607981 L 221.77518160701578,175.79643452451174 A 112,112 0 0,1 209.57717077662656,194.05204782632828 L 197.20900352282274,183.90175527970996 A 96,96 0 0,1 168.2540867352958,207.66444137744207 L 153.16939115686387,179.44296091829472 A 64,64 0 0,0 163.60117018647333,172.47266901521516 L 173.75146273309164,184.84083626901895 A 80,80 0 0,0 184.84083626901895,173.75146273309161 L 172.47266901521516,163.6011701864733 A 64,64 0 0,0 176.2140551873629,158.55649491325454 L 162.91054139052218,149.66737118494089 A 48,48 0 0,0 170.07769345935506,113.63566454322584 L 154.38512897290337,116.75710969548389 A 32,32 0 0,1 110.75413016431713,152.56414504036118 L 113.81559762323785,145.17310878027089" />
</svg>
