{
	"asset":{
		"generator":"Khronos glTF Blender I/O v3.5.30",
		"version":"2.0"
	},
	"scene":0,
	"scenes":[
		{
			"extras":{
				"b_settings":1,
				"b_renderer":1,
				"b_player":1,
				"b_interactive":1,
				"s_output":"exporting...",
				"b_export":1,
				"export_path":"/Volumes/2793-Blender-3D/HFIAD/Maze/Maze_Project/"
			},
			"name":"Scene",
			"nodes":[
				0
			]
		}
	],
	"nodes":[
		{
			"mesh":0,
			"name":"Plane",
			"scale":[
				20,
				1,
				20
			]
		}
	],
	"materials":[
		{
			"doubleSided":true,
			"name":"Material.001",
			"pbrMetallicRoughness":{
				"baseColorFactor":[
					0.23623721301555634,
					0.8004080057144165,
					0.2773175835609436,
					1
				],
				"metallicFactor":0,
				"roughnessFactor":0.5
			}
		}
	],
	"meshes":[
		{
			"name":"Plane",
			"primitives":[
				{
					"attributes":{
						"POSITION":0,
						"TEXCOORD_0":1,
						"NORMAL":2,
						"TANGENT":3
					},
					"indices":4,
					"material":0
				}
			]
		}
	],
	"accessors":[
		{
			"bufferView":0,
			"componentType":5126,
			"count":1562,
			"max":[
				1.1844584941864014,
				2.4870078563690186,
				0.9217013716697693
			],
			"min":[
				-0.8155415654182434,
				-0.33560824394226074,
				-1.078298568725586
			],
			"type":"VEC3"
		},
		{
			"bufferView":1,
			"componentType":5126,
			"count":1562,
			"type":"VEC2"
		},
		{
			"bufferView":2,
			"componentType":5126,
			"count":1562,
			"type":"VEC3"
		},
		{
			"bufferView":3,
			"componentType":5126,
			"count":1562,
			"type":"VEC4"
		},
		{
			"bufferView":4,
			"componentType":5123,
			"count":3600,
			"type":"SCALAR"
		}
	],
	"bufferViews":[
		{
			"buffer":0,
			"byteLength":18744,
			"byteOffset":0,
			"target":34962
		},
		{
			"buffer":0,
			"byteLength":12496,
			"byteOffset":18744,
			"target":34962
		},
		{
			"buffer":0,
			"byteLength":18744,
			"byteOffset":31240,
			"target":34962
		},
		{
			"buffer":0,
			"byteLength":24992,
			"byteOffset":49984,
			"target":34962
		},
		{
			"buffer":0,
			"byteLength":7200,
			"byteOffset":74976,
			"target":34963
		}
	],
	"buffers":[
		{
			"byteLength":82176,
			"uri":"data:application/octet-stream;base64,"
		}
	]
}
