{
	"asset":{
		"generator":"Khronos glTF Blender I/O v3.5.30",
		"version":"2.0"
	},
	"scene":0,
	"scenes":[
		{
			"extras":{
				"b_export":1,
				"b_settings":1,
				"b_renderer":1,
				"b_interactive":1,
				"export_path":"/Users/ginatoschi/Desktop/HFIAD24/Virtual_Reality/",
				"s_output":"exporting..."
			},
			"name":"Scene",
			"nodes":[
				0
			]
		}
	],
	"nodes":[
		{
			"mesh":0,
			"name":"Cylinder"
		}
	],
	"meshes":[
		{
			"name":"Cylinder",
			"primitives":[
				{
					"attributes":{
						"POSITION":0,
						"TEXCOORD_0":1,
						"NORMAL":2
					},
					"indices":3
				}
			]
		}
	],
	"accessors":[
		{
			"bufferView":0,
			"componentType":5126,
			"count":313,
			"max":[
				4.243806838989258,
				1.44183349609375,
				4.3126020431518555
			],
			"min":[
				-4.967604637145996,
				-0.19126349687576294,
				-4.898809432983398
			],
			"type":"VEC3"
		},
		{
			"bufferView":1,
			"componentType":5126,
			"count":313,
			"type":"VEC2"
		},
		{
			"bufferView":2,
			"componentType":5126,
			"count":313,
			"type":"VEC3"
		},
		{
			"bufferView":3,
			"componentType":5123,
			"count":1230,
			"type":"SCALAR"
		}
	],
	"bufferViews":[
		{
			"buffer":0,
			"byteLength":3756,
			"byteOffset":0,
			"target":34962
		},
		{
			"buffer":0,
			"byteLength":2504,
			"byteOffset":3756,
			"target":34962
		},
		{
			"buffer":0,
			"byteLength":3756,
			"byteOffset":6260,
			"target":34962
		},
		{
			"buffer":0,
			"byteLength":2460,
			"byteOffset":10016,
			"target":34963
		}
	],
	"buffers":[
		{
			"byteLength":12476,
			"uri":"data:application/octet-stream;base64,"
		}
	]
}
