{
	"asset":{
		"generator":"Khronos glTF Blender I/O v3.5.30",
		"version":"2.0"
	},
	"scene":0,
	"scenes":[
		{
			"extras":{
				"b_export":1,
				"b_interactive":1,
				"b_player":0,
				"b_renderer":0,
				"b_settings":0,
				"export_path":"/Volumes/2793-Blender-3D/HFIAD/Maze/Maze_V4/",
				"s_output":"exporting..."
			},
			"name":"Scene",
			"nodes":[
				0
			]
		}
	],
	"nodes":[
		{
			"mesh":0,
			"name":"Baby Chick",
			"rotation":[
				0,
				-0.4335596263408661,
				0,
				0.901124894618988
			],
			"scale":[
				0.6796350479125977,
				0.5843133330345154,
				0.5843133330345154
			]
		}
	],
	"materials":[
		{
			"doubleSided":true,
			"name":"Material.008",
			"pbrMetallicRoughness":{
				"baseColorFactor":[
					0.8000000715255737,
					0.6639325022697449,
					0.008355986326932907,
					1
				],
				"metallicFactor":0,
				"roughnessFactor":0.5
			}
		},
		{
			"doubleSided":true,
			"name":"Material.009",
			"pbrMetallicRoughness":{
				"baseColorFactor":[
					0.8000000715255737,
					0.34105998277664185,
					0.044188059866428375,
					1
				],
				"metallicFactor":0,
				"roughnessFactor":0.5
			}
		}
	],
	"meshes":[
		{
			"name":"Cube.001",
			"primitives":[
				{
					"attributes":{
						"POSITION":0,
						"TEXCOORD_0":1,
						"NORMAL":2,
						"TANGENT":3
					},
					"indices":4,
					"material":0
				},
				{
					"attributes":{
						"POSITION":5,
						"TEXCOORD_0":6,
						"NORMAL":7,
						"TANGENT":8
					},
					"indices":9,
					"material":1
				}
			]
		}
	],
	"accessors":[
		{
			"bufferView":0,
			"componentType":5126,
			"count":203,
			"max":[
				0.43285447359085083,
				1.6567013263702393,
				1.1708048582077026
			],
			"min":[
				-0.24248872697353363,
				-1.386433720588684,
				-1.9909645318984985
			],
			"type":"VEC3"
		},
		{
			"bufferView":1,
			"componentType":5126,
			"count":203,
			"type":"VEC2"
		},
		{
			"bufferView":2,
			"componentType":5126,
			"count":203,
			"type":"VEC3"
		},
		{
			"bufferView":3,
			"componentType":5126,
			"count":203,
			"type":"VEC4"
		},
		{
			"bufferView":4,
			"componentType":5123,
			"count":822,
			"type":"SCALAR"
		},
		{
			"bufferView":5,
			"componentType":5126,
			"count":9,
			"max":[
				0.24373842775821686,
				1.1588002443313599,
				1.405918002128601
			],
			"min":[
				-0.24248872697353363,
				0.7186556458473206,
				0.9280195236206055
			],
			"type":"VEC3"
		},
		{
			"bufferView":6,
			"componentType":5126,
			"count":9,
			"type":"VEC2"
		},
		{
			"bufferView":7,
			"componentType":5126,
			"count":9,
			"type":"VEC3"
		},
		{
			"bufferView":8,
			"componentType":5126,
			"count":9,
			"type":"VEC4"
		},
		{
			"bufferView":9,
			"componentType":5123,
			"count":24,
			"type":"SCALAR"
		}
	],
	"bufferViews":[
		{
			"buffer":0,
			"byteLength":2436,
			"byteOffset":0,
			"target":34962
		},
		{
			"buffer":0,
			"byteLength":1624,
			"byteOffset":2436,
			"target":34962
		},
		{
			"buffer":0,
			"byteLength":2436,
			"byteOffset":4060,
			"target":34962
		},
		{
			"buffer":0,
			"byteLength":3248,
			"byteOffset":6496,
			"target":34962
		},
		{
			"buffer":0,
			"byteLength":1644,
			"byteOffset":9744,
			"target":34963
		},
		{
			"buffer":0,
			"byteLength":108,
			"byteOffset":11388,
			"target":34962
		},
		{
			"buffer":0,
			"byteLength":72,
			"byteOffset":11496,
			"target":34962
		},
		{
			"buffer":0,
			"byteLength":108,
			"byteOffset":11568,
			"target":34962
		},
		{
			"buffer":0,
			"byteLength":144,
			"byteOffset":11676,
			"target":34962
		},
		{
			"buffer":0,
			"byteLength":48,
			"byteOffset":11820,
			"target":34963
		}
	],
	"buffers":[
		{
			"byteLength":11868,
			"uri":"data:application/octet-stream;base64,"
		}
	]
}
