{
	"asset":{
		"generator":"Khronos glTF Blender I/O v3.5.30",
		"version":"2.0"
	},
	"scene":0,
	"scenes":[
		{
			"extras":{
				"b_export":1,
				"b_interactive":1,
				"b_player":0,
				"b_renderer":0,
				"b_settings":0,
				"export_path":"/Volumes/2793-Blender-3D/HFIAD/Maze/Maze_V4/",
				"s_output":"exporting..."
			},
			"name":"Scene",
			"nodes":[
				0
			]
		}
	],
	"nodes":[
		{
			"mesh":0,
			"name":"Cylinder.001",
			"scale":[
				1.9270600080490112,
				1.666817307472229,
				1.1154992580413818
			]
		}
	],
	"materials":[
		{
			"doubleSided":true,
			"name":"Material.006",
			"pbrMetallicRoughness":{
				"baseColorFactor":[
					0.27359315752983093,
					0.11828333139419556,
					0.11828333139419556,
					1
				],
				"metallicFactor":0,
				"roughnessFactor":0.5
			}
		}
	],
	"meshes":[
		{
			"name":"Cylinder.004",
			"primitives":[
				{
					"attributes":{
						"POSITION":0,
						"TEXCOORD_0":1,
						"NORMAL":2,
						"TANGENT":3
					},
					"indices":4,
					"material":0
				}
			]
		}
	],
	"accessors":[
		{
			"bufferView":0,
			"componentType":5126,
			"count":328,
			"max":[
				0.12973129749298096,
				0.29997289180755615,
				0.22411489486694336
			],
			"min":[
				-0.12973129749298096,
				-0.29997289180755615,
				-0.22411489486694336
			],
			"type":"VEC3"
		},
		{
			"bufferView":1,
			"componentType":5126,
			"count":328,
			"type":"VEC2"
		},
		{
			"bufferView":2,
			"componentType":5126,
			"count":328,
			"type":"VEC3"
		},
		{
			"bufferView":3,
			"componentType":5126,
			"count":328,
			"type":"VEC4"
		},
		{
			"bufferView":4,
			"componentType":5123,
			"count":372,
			"type":"SCALAR"
		}
	],
	"bufferViews":[
		{
			"buffer":0,
			"byteLength":3936,
			"byteOffset":0,
			"target":34962
		},
		{
			"buffer":0,
			"byteLength":2624,
			"byteOffset":3936,
			"target":34962
		},
		{
			"buffer":0,
			"byteLength":3936,
			"byteOffset":6560,
			"target":34962
		},
		{
			"buffer":0,
			"byteLength":5248,
			"byteOffset":10496,
			"target":34962
		},
		{
			"buffer":0,
			"byteLength":744,
			"byteOffset":15744,
			"target":34963
		}
	],
	"buffers":[
		{
			"byteLength":16488,
			"uri":"data:application/octet-stream;base64,"
		}
	]
}
