{
	"asset":{
		"generator":"Khronos glTF Blender I/O v3.5.30",
		"version":"2.0"
	},
	"scene":0,
	"scenes":[
		{
			"extras":{
				"b_export":1,
				"b_interactive":1,
				"b_player":0,
				"b_renderer":0,
				"b_settings":0,
				"export_path":"/Volumes/2793-Blender-3D/HFIAD/Maze/Maze_V4/",
				"s_output":"exporting..."
			},
			"name":"Scene",
			"nodes":[
				0
			]
		}
	],
	"nodes":[
		{
			"mesh":0,
			"name":"Gound"
		}
	],
	"materials":[
		{
			"doubleSided":true,
			"name":"Material.001",
			"pbrMetallicRoughness":{
				"baseColorFactor":[
					0.23623721301555634,
					0.8004080057144165,
					0.2773175835609436,
					1
				],
				"metallicFactor":0,
				"roughnessFactor":0.5
			}
		}
	],
	"meshes":[
		{
			"name":"Plane",
			"primitives":[
				{
					"attributes":{
						"POSITION":0,
						"TEXCOORD_0":1,
						"NORMAL":2,
						"TANGENT":3
					},
					"indices":4,
					"material":0
				}
			]
		}
	],
	"accessors":[
		{
			"bufferView":0,
			"componentType":5126,
			"count":23268,
			"max":[
				19.945953369140625,
				10.091570854187012,
				19.97014808654785
			],
			"min":[
				-20.090635299682617,
				-8.285712242126465,
				-20.041048049926758
			],
			"type":"VEC3"
		},
		{
			"bufferView":1,
			"componentType":5126,
			"count":23268,
			"type":"VEC2"
		},
		{
			"bufferView":2,
			"componentType":5126,
			"count":23268,
			"type":"VEC3"
		},
		{
			"bufferView":3,
			"componentType":5126,
			"count":23268,
			"type":"VEC4"
		},
		{
			"bufferView":4,
			"componentType":5123,
			"count":117276,
			"type":"SCALAR"
		}
	],
	"bufferViews":[
		{
			"buffer":0,
			"byteLength":279216,
			"byteOffset":0,
			"target":34962
		},
		{
			"buffer":0,
			"byteLength":186144,
			"byteOffset":279216,
			"target":34962
		},
		{
			"buffer":0,
			"byteLength":279216,
			"byteOffset":465360,
			"target":34962
		},
		{
			"buffer":0,
			"byteLength":372288,
			"byteOffset":744576,
			"target":34962
		},
		{
			"buffer":0,
			"byteLength":234552,
			"byteOffset":1116864,
			"target":34963
		}
	],
	"buffers":[
		{
			"byteLength":1351416,
			"uri":"data:application/octet-stream;base64,"
		}
	]
}
