{
	"asset":{
		"generator":"Khronos glTF Blender I/O v3.5.30",
		"version":"2.0"
	},
	"scene":0,
	"scenes":[
		{
			"extras":{
				"b_settings":1,
				"b_renderer":1,
				"b_player":1,
				"b_interactive":1,
				"s_output":"exporting...",
				"b_export":1,
				"export_path":"/Volumes/2793-Blender-3D/HFIAD/Maze/Maze_Project/"
			},
			"name":"Scene",
			"nodes":[
				0
			]
		}
	],
	"nodes":[
		{
			"mesh":0,
			"name":"Curve",
			"scale":[
				26.614126205444336,
				18.7499942779541,
				26.622709274291992
			]
		}
	],
	"materials":[
		{
			"doubleSided":true,
			"name":"Maze",
			"pbrMetallicRoughness":{
				"baseColorFactor":[
					0.8005527257919312,
					0.4966951608657837,
					0.0035755857825279236,
					1
				],
				"metallicFactor":0,
				"roughnessFactor":0.5
			}
		}
	],
	"meshes":[
		{
			"name":"Curve",
			"primitives":[
				{
					"attributes":{
						"POSITION":0,
						"TEXCOORD_0":1,
						"NORMAL":2,
						"TANGENT":3
					},
					"indices":4,
					"material":0
				}
			]
		}
	],
	"accessors":[
		{
			"bufferView":0,
			"componentType":5126,
			"count":17897,
			"max":[
				0.37044191360473633,
				0.04004330560564995,
				0.37419968843460083
			],
			"min":[
				-0.38103872537612915,
				-0.039956722408533096,
				-0.3770386576652527
			],
			"type":"VEC3"
		},
		{
			"bufferView":1,
			"componentType":5126,
			"count":17897,
			"type":"VEC2"
		},
		{
			"bufferView":2,
			"componentType":5126,
			"count":17897,
			"type":"VEC3"
		},
		{
			"bufferView":3,
			"componentType":5126,
			"count":17897,
			"type":"VEC4"
		},
		{
			"bufferView":4,
			"componentType":5123,
			"count":43884,
			"type":"SCALAR"
		}
	],
	"bufferViews":[
		{
			"buffer":0,
			"byteLength":214764,
			"byteOffset":0,
			"target":34962
		},
		{
			"buffer":0,
			"byteLength":143176,
			"byteOffset":214764,
			"target":34962
		},
		{
			"buffer":0,
			"byteLength":214764,
			"byteOffset":357940,
			"target":34962
		},
		{
			"buffer":0,
			"byteLength":286352,
			"byteOffset":572704,
			"target":34962
		},
		{
			"buffer":0,
			"byteLength":87768,
			"byteOffset":859056,
			"target":34963
		}
	],
	"buffers":[
		{
			"byteLength":946824,
			"uri":"data:application/octet-stream;base64,"
		}
	]
}
