{
	"asset":{
		"generator":"Khronos glTF Blender I/O v3.5.30",
		"version":"2.0"
	},
	"scene":0,
	"scenes":[
		{
			"extras":{
				"b_settings":1,
				"b_renderer":1,
				"b_player":1,
				"b_interactive":1,
				"s_output":"exporting...",
				"b_export":1,
				"export_path":"/Volumes/2793-Blender-3D/HFIAD/Maze/Maze_Project/"
			},
			"name":"Scene",
			"nodes":[
				0
			]
		}
	],
	"nodes":[
		{
			"mesh":0,
			"name":"Cylinder",
			"scale":[
				1.0884636640548706,
				1.0544874668121338,
				1.1156768798828125
			]
		}
	],
	"meshes":[
		{
			"name":"Cylinder.001",
			"primitives":[
				{
					"attributes":{
						"POSITION":0,
						"TEXCOORD_0":1,
						"NORMAL":2,
						"TANGENT":3
					},
					"indices":4
				}
			]
		}
	],
	"accessors":[
		{
			"bufferView":0,
			"componentType":5126,
			"count":25504,
			"max":[
				13.780889511108398,
				0.17485356330871582,
				13.444755554199219
			],
			"min":[
				-13.780893325805664,
				-1.8734745979309082,
				-13.444751739501953
			],
			"type":"VEC3"
		},
		{
			"bufferView":1,
			"componentType":5126,
			"count":25504,
			"type":"VEC2"
		},
		{
			"bufferView":2,
			"componentType":5126,
			"count":25504,
			"type":"VEC3"
		},
		{
			"bufferView":3,
			"componentType":5126,
			"count":25504,
			"type":"VEC4"
		},
		{
			"bufferView":4,
			"componentType":5123,
			"count":35316,
			"type":"SCALAR"
		}
	],
	"bufferViews":[
		{
			"buffer":0,
			"byteLength":306048,
			"byteOffset":0,
			"target":34962
		},
		{
			"buffer":0,
			"byteLength":204032,
			"byteOffset":306048,
			"target":34962
		},
		{
			"buffer":0,
			"byteLength":306048,
			"byteOffset":510080,
			"target":34962
		},
		{
			"buffer":0,
			"byteLength":408064,
			"byteOffset":816128,
			"target":34962
		},
		{
			"buffer":0,
			"byteLength":70632,
			"byteOffset":1224192,
			"target":34963
		}
	],
	"buffers":[
		{
			"byteLength":1294824,
			"uri":"data:application/octet-stream;base64,"
		}
	]
}
